<svg width="24" height="24" viewBox="0 0 24 24" fill="none" xmlns="http://www.w3.org/2000/svg">
<path d="M23.5 1.75V14.75C23.5 15.2141 23.3156 15.6592 22.9874 15.9874C22.6592 16.3156 22.2141 16.5 21.75 16.5H7.56125L9.28 18.22C9.35369 18.2887 9.41279 18.3715 9.45378 18.4635C9.49477 18.5555 9.51682 18.6548 9.51859 18.7555C9.52037 18.8562 9.50184 18.9562 9.46412 19.0496C9.4264 19.143 9.37026 19.2278 9.29904 19.299C9.22782 19.3703 9.14299 19.4264 9.0496 19.4641C8.95621 19.5018 8.85618 19.5204 8.75548 19.5186C8.65477 19.5168 8.55546 19.4948 8.46346 19.4538C8.37146 19.4128 8.28866 19.3537 8.22 19.28L5.22 16.28C5.07955 16.1394 5.00066 15.9488 5.00066 15.75C5.00066 15.5512 5.07955 15.3606 5.22 15.22L8.22 12.22C8.36217 12.0875 8.55022 12.0154 8.74452 12.0188C8.93882 12.0223 9.12421 12.101 9.26162 12.2384C9.39903 12.3758 9.47775 12.5612 9.48118 12.7555C9.4846 12.9498 9.41248 13.1378 9.28 13.28L7.56125 15H21.75C21.8163 15 21.8799 14.9737 21.9268 14.9268C21.9737 14.8799 22 14.8163 22 14.75V1.75C22 1.6837 21.9737 1.62011 21.9268 1.57322C21.8799 1.52634 21.8163 1.5 21.75 1.5H7.75C7.6837 1.5 7.62011 1.52634 7.57322 1.57322C7.52634 1.62011 7.5 1.6837 7.5 1.75V2.75C7.5 2.94891 7.42098 3.13968 7.28033 3.28033C7.13968 3.42098 6.94891 3.5 6.75 3.5C6.55109 3.5 6.36032 3.42098 6.21967 3.28033C6.07902 3.13968 6 2.94891 6 2.75V1.75C6 1.28587 6.18437 0.840752 6.51256 0.512563C6.84075 0.184375 7.28587 0 7.75 0H21.75C22.2141 0 22.6592 0.184375 22.9874 0.512563C23.3156 0.840752 23.5 1.28587 23.5 1.75ZM16.75 20C16.5511 20 16.3603 20.079 16.2197 20.2197C16.079 20.3603 16 20.5511 16 20.75V21.75C16 21.8163 15.9737 21.8799 15.9268 21.9268C15.8799 21.9737 15.8163 22 15.75 22H1.75C1.6837 22 1.62011 21.9737 1.57322 21.9268C1.52634 21.8799 1.5 21.8163 1.5 21.75V8.75C1.5 8.6837 1.52634 8.62011 1.57322 8.57322C1.62011 8.52634 1.6837 8.5 1.75 8.5H15.9387L14.22 10.22C14.1463 10.2887 14.0872 10.3715 14.0462 10.4635C14.0052 10.5555 13.9832 10.6548 13.9814 10.7555C13.9796 10.8562 13.9982 10.9562 14.0359 11.0496C14.0736 11.143 14.1297 11.2278 14.201 11.299C14.2722 11.3703 14.357 11.4264 14.4504 11.4641C14.5438 11.5018 14.6438 11.5204 14.7445 11.5186C14.8452 11.5168 14.9445 11.4948 15.0365 11.4538C15.1285 11.4128 15.2113 11.3537 15.28 11.28L18.28 8.28C18.4205 8.13937 18.4993 7.94875 18.4993 7.75C18.4993 7.55125 18.4205 7.36063 18.28 7.22L15.28 4.22C15.1378 4.08752 14.9498 4.0154 14.7555 4.01882C14.5612 4.02225 14.3758 4.10097 14.2384 4.23838C14.101 4.37579 14.0223 4.56118 14.0188 4.75548C14.0154 4.94978 14.0875 5.13783 14.22 5.28L15.9387 7H1.75C1.28587 7 0.840752 7.18437 0.512563 7.51256C0.184375 7.84075 0 8.28587 0 8.75V21.75C0 22.2141 0.184375 22.6592 0.512563 22.9874C0.840752 23.3156 1.28587 23.5 1.75 23.5H15.75C16.2141 23.5 16.6592 23.3156 16.9874 22.9874C17.3156 22.6592 17.5 22.2141 17.5 21.75V20.75C17.5 20.5511 17.421 20.3603 17.2803 20.2197C17.1397 20.079 16.9489 20 16.75 20Z" fill="black"/>
</svg>
